<?xml version="1.0" encoding="UTF-8"?>
<svg
  xmlns="http://www.w3.org/2000/svg"
  x="0"
  y="0"
  version="1.1"
  viewBox="0 0 214 63.4"
  width="214"
  height="63.4"
>
  <path
    d="m44 22.7-3.2-10.5c-.1-.3-.3-.4-.6-.3C21.6 19.5 19.8 41 19.8 41l-6.6-21.7c0-.2-.2-.3-.4-.3H.4c-.3 0-.5.3-.4.7l10.5 32c.1.2.2.3.4.3h17.4c.2 0 .4-.2.4-.5.1-3.2 1.3-21.8 15-28.2.2-.1.3-.3.3-.6zM89.2 0H78.1c-.2 0-.4.2-.4.5v51c0 .3.2.5.4.5h11.1c.2 0 .4-.2.4-.5V.5c0-.3-.2-.5-.4-.5zM171.6 10.4h-11c-.2 0-.4.2-.4.5v10.3c0 12.1-1.8 18.3-8.1 18.3-5.7 0-6.9-5.7-6.9-12V10.9c0-.3-.2-.5-.4-.5h-11c-.2 0-.4.2-.4.5v23.4c0 13.6 5.6 18.6 13 18.6s11.8-3.9 14.3-13.7v.1l-.8 12.3c0 .3.2.5.4.5h11.3c.2 0 .4-.2.4-.5V10.9c.1-.3-.1-.5-.4-.5zM213.6 10.4h-11c-.2 0-.4.2-.4.5v10.3c0 12.1-1.8 18.3-8.1 18.3-5.7 0-6.9-5.7-6.9-12V10.9c0-.3-.2-.5-.4-.5h-11c-.2 0-.4.2-.4.5v23.4c0 13.6 5.6 18.6 13 18.6s11.8-3.9 14.3-13.7v.1l-.8 12.3c0 .3.2.5.4.5h11.3c.2 0 .4-.2.4-.5V10.9c0-.3-.2-.5-.4-.5zM110.1 51.9H97c-.2 0-.4.2-.4.5v10.5c0 .3.2.5.4.5h14.3c12.1-.3 18.7-8.7 18.9-19.3V10.9c0-.3-.2-.5-.4-.5h-10.5c-.2 0-.4.2-.4.5v5c0 12.1-1.1 18.3-7.4 18.3-5.7 0-6.9-5.7-6.9-12V10.9c0-.3-.2-.5-.4-.5H93.5c-.2 0-.4.2-.4.5v16.2c0 13.6 5.6 18.6 13 18.6 4.8 0 10.1-1.8 12.8-6.1-.2 6.9-3.1 12.3-8.8 12.3z"
    class="logo-path"
    fill="#3232FB"
  />
  <path
    d="M55.1 9.6c-2.5-.1-4.8 0-6.9.3H48c-.7.1-1.3.2-1.9.3-.3 0-.4.4-.4.6l3.2 10.4c.1.2.3.4.5.3.2 0 .4-.1.6-.1.9-.1 1.9-.2 2.9-.2h.1c3.9 0 8.6 1.3 9.4 6.1v1.1c-2-.3-5-.5-7.8-.5-8.3 0-14 2.2-16.6 10.4-.9 2.8-.7 6 .3 8.7 1.6 4.5 6.2 6.1 10.7 6.1 6.1 0 11-3.2 13.5-9.5v7.8c0 .3.2.5.4.5h10.7c.2 0 .4-.2.4-.5V29c.1-10.9-6.6-19.2-18.9-19.4zm-2.3 34.2c-2.9 0-5.3-1.3-5.3-4.3 0-2.7 2-5.3 9.7-5.3h4.4c-.5 6.1-3.9 9.6-8.8 9.6z"
    class="logo-path"
    fill="#3232FB"
  />
</svg>
