<svg width="94" height="55" viewBox="0 0 94 55" fill="none" xmlns="http://www.w3.org/2000/svg">
<path d="M1.21159 16.5986V4.98068H5.17829C6.09666 4.98068 6.85459 5.13559 7.45208 5.4454C8.04958 5.74415 8.49217 6.15908 8.77985 6.69018C9.0786 7.21022 9.22797 7.79665 9.22797 8.44947C9.22797 9.09122 9.08413 9.67212 8.79645 10.1922C8.50876 10.7122 8.06618 11.1327 7.46868 11.4535C6.88225 11.7634 6.11879 11.9183 5.17829 11.9183H2.87129V16.5986H1.21159ZM2.87129 10.5407H5.1119C5.97495 10.5407 6.58904 10.3526 6.95417 9.9764C7.33037 9.6002 7.51847 9.09122 7.51847 8.44947C7.51847 7.78559 7.33037 7.27108 6.95417 6.90594C6.58904 6.54081 5.97495 6.35824 5.1119 6.35824H2.87129V10.5407ZM14.2656 16.7978C13.48 16.7978 12.7718 16.6208 12.1411 16.2667C11.5215 15.9016 11.0291 15.3926 10.664 14.7398C10.3099 14.0759 10.1329 13.3124 10.1329 12.4494C10.1329 11.5642 10.3155 10.7952 10.6806 10.1424C11.0457 9.48955 11.5437 8.98058 12.1743 8.61544C12.805 8.25031 13.5076 8.06774 14.2822 8.06774C15.0788 8.06774 15.787 8.25031 16.4066 8.61544C17.0373 8.98058 17.5297 9.48955 17.8837 10.1424C18.2489 10.7952 18.4314 11.5587 18.4314 12.4328C18.4314 13.3069 18.2489 14.0759 17.8837 14.7398C17.5186 15.3926 17.0207 15.9016 16.39 16.2667C15.7704 16.6208 15.0622 16.7978 14.2656 16.7978ZM14.2656 15.3704C14.7082 15.3704 15.1176 15.2653 15.4938 15.0551C15.87 14.8338 16.1687 14.5019 16.39 14.0593C16.6224 13.6167 16.7385 13.0745 16.7385 12.4328C16.7385 11.78 16.6279 11.2378 16.4066 10.8063C16.1853 10.3747 15.8866 10.0483 15.5104 9.82703C15.1341 9.60573 14.7303 9.49509 14.2988 9.49509C13.8672 9.49509 13.4578 9.60573 13.0706 9.82703C12.6944 10.0483 12.3901 10.3747 12.1577 10.8063C11.9364 11.2378 11.8258 11.78 11.8258 12.4328C11.8258 13.0745 11.9364 13.6167 12.1577 14.0593C12.3901 14.5019 12.6888 14.8338 13.054 15.0551C13.4302 15.2653 13.834 15.3704 14.2656 15.3704ZM21.7521 16.5986L19.3124 8.2669H20.9555L22.7812 15.2543L22.4492 15.2377L24.4741 8.2669H26.3329L28.3578 15.2377L28.0092 15.2543L29.8349 8.2669H31.4946L29.0549 16.5986H27.362L25.2209 9.32912H25.5861L23.4616 16.5986H21.7521ZM36.5027 16.7978C35.6949 16.7978 34.9813 16.6208 34.3616 16.2667C33.742 15.9016 33.2552 15.3926 32.9011 14.7398C32.5581 14.0869 32.3866 13.329 32.3866 12.466C32.3866 11.5808 32.5581 10.8118 32.9011 10.159C33.2552 9.50615 33.742 8.99717 34.3616 8.63204C34.9813 8.25584 35.7005 8.06774 36.5193 8.06774C37.338 8.06774 38.0407 8.25031 38.6271 8.61544C39.2135 8.98058 39.6672 9.46189 39.988 10.0594C40.3089 10.6569 40.4694 11.3208 40.4694 12.051C40.4694 12.1617 40.4694 12.2834 40.4694 12.4162C40.4694 12.5379 40.4638 12.6762 40.4528 12.8311H33.5982V11.6527H38.8097C38.7765 10.9667 38.5441 10.4301 38.1126 10.0428C37.6811 9.64446 37.1444 9.4453 36.5027 9.4453C36.0601 9.4453 35.6451 9.55041 35.2579 9.76064C34.8817 9.9598 34.5774 10.2586 34.345 10.6569C34.1237 11.0441 34.0131 11.531 34.0131 12.1174V12.5821C34.0131 13.2018 34.1237 13.7218 34.345 14.1423C34.5774 14.5627 34.8817 14.8836 35.2579 15.1049C35.6341 15.3151 36.0435 15.4202 36.4861 15.4202C37.0172 15.4202 37.4542 15.3041 37.7972 15.0717C38.1513 14.8283 38.4113 14.5074 38.5773 14.1091H40.237C40.0932 14.618 39.8497 15.0772 39.5067 15.4866C39.1637 15.885 38.7377 16.2058 38.2288 16.4493C37.7308 16.6816 37.1555 16.7978 36.5027 16.7978ZM42.3133 16.5986V8.2669H43.8071L43.9564 9.84363C44.1445 9.47849 44.3824 9.16315 44.6701 8.89759C44.9689 8.63204 45.3174 8.42734 45.7157 8.2835C46.1251 8.13966 46.5843 8.06774 47.0933 8.06774V9.82703H46.5456C46.1915 9.82703 45.8596 9.87129 45.5497 9.95981C45.2399 10.0373 44.9633 10.1756 44.7199 10.3747C44.4875 10.5739 44.305 10.845 44.1722 11.188C44.0394 11.531 43.973 11.957 43.973 12.466V16.5986H42.3133ZM52.1759 16.7978C51.3681 16.7978 50.6545 16.6208 50.0348 16.2667C49.4152 15.9016 48.9284 15.3926 48.5743 14.7398C48.2313 14.0869 48.0598 13.329 48.0598 12.466C48.0598 11.5808 48.2313 10.8118 48.5743 10.159C48.9284 9.50615 49.4152 8.99717 50.0348 8.63204C50.6545 8.25584 51.3737 8.06774 52.1925 8.06774C53.0113 8.06774 53.7139 8.25031 54.3003 8.61544C54.8867 8.98058 55.3404 9.46189 55.6613 10.0594C55.9821 10.6569 56.1426 11.3208 56.1426 12.051C56.1426 12.1617 56.1426 12.2834 56.1426 12.4162C56.1426 12.5379 56.137 12.6762 56.126 12.8311H49.2714V11.6527H54.4829C54.4497 10.9667 54.2173 10.4301 53.7858 10.0428C53.3543 9.64446 52.8176 9.4453 52.1759 9.4453C51.7333 9.4453 51.3184 9.55041 50.9311 9.76064C50.5549 9.9598 50.2506 10.2586 50.0182 10.6569C49.797 11.0441 49.6863 11.531 49.6863 12.1174V12.5821C49.6863 13.2018 49.797 13.7218 50.0182 14.1423C50.2506 14.5627 50.5549 14.8836 50.9311 15.1049C51.3073 15.3151 51.7167 15.4202 52.1593 15.4202C52.6904 15.4202 53.1274 15.3041 53.4704 15.0717C53.8245 14.8283 54.0845 14.5074 54.2505 14.1091H55.9102C55.7664 14.618 55.5229 15.0772 55.1799 15.4866C54.8369 15.885 54.4109 16.2058 53.902 16.4493C53.404 16.6816 52.8287 16.7978 52.1759 16.7978ZM61.7043 16.7978C60.9076 16.7978 60.205 16.6097 59.5964 16.2335C58.9879 15.8462 58.5121 15.3262 58.1691 14.6734C57.8372 14.0095 57.6712 13.2626 57.6712 12.4328C57.6712 11.5919 57.8372 10.845 58.1691 10.1922C58.5121 9.52828 58.9879 9.00824 59.5964 8.63204C60.2161 8.25584 60.9297 8.06774 61.7375 8.06774C62.3903 8.06774 62.9656 8.20052 63.4636 8.46607C63.9615 8.72056 64.3487 9.08569 64.6254 9.56148V4.64874H66.2851V16.5986H64.7913L64.6254 15.3041C64.4483 15.5585 64.227 15.802 63.9615 16.0343C63.6959 16.2556 63.375 16.4382 62.9988 16.582C62.6337 16.7259 62.2022 16.7978 61.7043 16.7978ZM61.9864 15.3539C62.4954 15.3539 62.9491 15.2321 63.3474 14.9887C63.7457 14.7453 64.0555 14.4078 64.2768 13.9763C64.4981 13.5337 64.6088 13.0192 64.6088 12.4328C64.6088 11.8463 64.4981 11.3374 64.2768 10.9058C64.0555 10.4632 63.7457 10.1202 63.3474 9.87682C62.9491 9.6334 62.4899 9.51168 61.9698 9.51168C61.4719 9.51168 61.0238 9.6334 60.6255 9.87682C60.2271 10.1202 59.9173 10.4632 59.696 10.9058C59.4747 11.3484 59.3641 11.8574 59.3641 12.4328C59.3641 13.0192 59.4747 13.5337 59.696 13.9763C59.9173 14.4078 60.2271 14.7453 60.6255 14.9887C61.0238 15.2321 61.4774 15.3539 61.9864 15.3539ZM77.3487 16.7978C76.895 16.7978 76.4856 16.7314 76.1205 16.5986C75.7554 16.4769 75.429 16.3054 75.1413 16.0841C74.8647 15.8628 74.6323 15.6083 74.4442 15.3207L74.2782 16.5986H72.7845V4.64874H74.4442V9.57807C74.7098 9.16868 75.0804 8.81461 75.5562 8.51586C76.0431 8.21711 76.6406 8.06774 77.3487 8.06774C78.1564 8.06774 78.859 8.26137 79.4565 8.64864C80.0651 9.02484 80.5409 9.54488 80.8839 10.2088C81.2269 10.8616 81.3984 11.6084 81.3984 12.4494C81.3984 13.2792 81.2269 14.0261 80.8839 14.69C80.5409 15.3428 80.0651 15.8573 79.4565 16.2335C78.848 16.6097 78.1454 16.7978 77.3487 16.7978ZM77.0831 15.3539C77.5921 15.3539 78.0458 15.2321 78.4441 14.9887C78.8424 14.7453 79.1522 14.4078 79.3735 13.9763C79.5948 13.5337 79.7055 13.0192 79.7055 12.4328C79.7055 11.8574 79.5948 11.354 79.3735 10.9224C79.1522 10.4798 78.8424 10.1368 78.4441 9.89342C78.0458 9.63893 77.5921 9.51168 77.0831 9.51168C76.5631 9.51168 76.1039 9.63893 75.7056 9.89342C75.3073 10.1368 74.9974 10.4798 74.7761 10.9224C74.5659 11.354 74.4608 11.8574 74.4608 12.4328C74.4608 13.0192 74.5659 13.5337 74.7761 13.9763C74.9974 14.4078 75.3073 14.7453 75.7056 14.9887C76.1039 15.2321 76.5631 15.3539 77.0831 15.3539ZM83.6016 20.25L85.6431 15.6692H85.1452L81.8423 8.2669H83.6514L86.2738 14.3082L88.9127 8.2669H90.6554L85.3443 20.25H83.6016Z" fill="#929292"/>
<path d="M6.02169 23.8613L7.82789 47.3474H8.21493L9.97913 23.8613H16.0008L12.6464 53.973H3.22836L0 23.8613H6.02169Z" fill="#929292"/>
<path d="M38.9516 23.8164V48.7218H43.8993V53.97H32.9329V23.8164H38.9546H38.9516Z" fill="#929292"/>
<path d="M48.1562 23.8613L49.5754 37.2832H49.9625L51.3817 23.8613H57.4453L52.7137 45.625V53.9699H46.6922V45.625L42.1316 23.8613H48.1531H48.1562Z" fill="#929292"/>
<path d="M65.2159 23.8613V46.9603C65.2159 47.7915 65.3869 48.3736 65.7318 48.7007C66.0769 49.0308 66.464 49.1958 66.893 49.1958C67.322 49.1958 67.703 49.0308 68.0331 48.7007C68.3631 48.3706 68.528 47.7915 68.528 46.9603V23.8613H74.5498V46.5312C74.5498 49.1688 73.8538 51.1402 72.4647 52.4455C71.0725 53.7507 69.1882 54.4019 66.8089 54.4019C64.4298 54.4019 62.5995 53.7568 61.2375 52.4666C59.8751 51.1762 59.1941 49.1988 59.1941 46.5312V23.8613H65.2159Z" fill="#929292"/>
<path d="M82.6655 23.8613V46.9603C82.6655 47.7915 82.8365 48.3736 83.1816 48.7007C83.5264 49.0308 83.9136 49.1958 84.3426 49.1958C84.7715 49.1958 85.1526 49.0308 85.4826 48.7007C85.8127 48.3706 85.9779 47.7915 85.9779 46.9603V23.8613H91.9994V46.5312C91.9994 49.1688 91.3033 51.1402 89.9142 52.4455C88.5221 53.7507 86.6378 54.4019 84.2587 54.4019C81.8794 54.4019 80.0522 53.7568 78.6898 52.4666C77.3278 51.1762 76.6467 49.1988 76.6467 46.5312V23.8613H82.6685H82.6655Z" fill="#929292"/>
<path d="M25.2023 53.9699L23.3961 30.4838H23.009L21.2448 53.9699H15.2231L18.5775 23.8584H27.9955L31.221 53.9699H25.1993H25.2023Z" fill="#929292"/>
</svg>
