<svg width="120" height="55" fill="none" xmlns="http://www.w3.org/2000/svg"><path d="M1.178 16.863V5.245h4.067c.907 0 1.66.155 2.257.464.597.3 1.04.714 1.328 1.245.298.52.448 1.112.448 1.776a3.6 3.6 0 0 1-.432 1.743c-.276.52-.713.935-1.31 1.244-.598.31-1.362.465-2.291.465H2.938v4.68h-1.76Zm1.76-6.125h2.224c.83 0 1.421-.177 1.776-.53.365-.366.547-.858.547-1.478 0-.642-.182-1.14-.547-1.494-.354-.365-.946-.547-1.776-.547H2.938v4.05Zm11.409 6.324c-.786 0-1.494-.177-2.124-.531a4.034 4.034 0 0 1-1.478-1.51c-.365-.654-.547-1.412-.547-2.275s.182-1.615.547-2.257a3.96 3.96 0 0 1 1.51-1.51 4.13 4.13 0 0 1 2.109-.548c.785 0 1.488.183 2.107.548.631.354 1.129.857 1.494 1.51.376.642.564 1.394.564 2.257 0 .864-.188 1.621-.564 2.274a3.996 3.996 0 0 1-1.494 1.51c-.63.355-1.338.532-2.124.532Zm0-1.51a2.305 2.305 0 0 0 2.041-1.245c.222-.42.332-.94.332-1.56 0-.62-.11-1.135-.332-1.544-.21-.42-.498-.736-.863-.946a2.234 2.234 0 0 0-1.161-.315c-.42 0-.814.105-1.179.315-.354.21-.642.526-.863.946-.221.41-.332.924-.332 1.543 0 .62.11 1.14.332 1.56.222.41.51.72.863.93.354.21.742.315 1.162.315Zm7.42 1.31L19.344 8.63h1.76l1.593 6.208 1.792-6.208h1.959l1.792 6.208 1.593-6.208h1.76l-2.424 8.232H27.36l-1.892-6.472-1.892 6.473h-1.809Zm14.817.2c-.807 0-1.527-.177-2.157-.531a3.912 3.912 0 0 1-1.46-1.51c-.355-.643-.532-1.39-.532-2.241 0-.863.172-1.621.515-2.274a3.881 3.881 0 0 1 1.46-1.527c.631-.365 1.361-.548 2.191-.548.808 0 1.51.183 2.108.548.597.354 1.062.83 1.394 1.427.332.598.498 1.256.498 1.975 0 .111-.006.233-.017.365 0 .122-.005.26-.016.415H34.16c.056.797.316 1.406.78 1.826.476.41 1.024.614 1.643.614.498 0 .913-.11 1.245-.332.343-.232.598-.542.764-.93h1.759c-.221.775-.664 1.423-1.328 1.943-.653.52-1.466.78-2.44.78Zm0-7.187c-.586 0-1.106.177-1.56.531-.453.343-.73.863-.83 1.56h4.648c-.033-.641-.26-1.15-.68-1.526-.421-.377-.947-.565-1.578-.565Zm5.842 6.988V8.63h1.577l.15 1.56a3.245 3.245 0 0 1 1.194-1.277c.52-.321 1.146-.482 1.876-.482v1.843h-.481c-.487 0-.924.083-1.311.249-.377.154-.681.425-.913.813-.222.376-.332.902-.332 1.576v3.95h-1.76Zm9.929.199c-.808 0-1.527-.177-2.158-.531a3.911 3.911 0 0 1-1.46-1.51c-.354-.643-.531-1.39-.531-2.241 0-.863.171-1.621.514-2.274a3.881 3.881 0 0 1 1.46-1.527c.631-.365 1.362-.548 2.191-.548.808 0 1.51.183 2.108.548.598.354 1.063.83 1.395 1.427.331.598.497 1.256.497 1.975 0 .111-.005.233-.016.365 0 .122-.006.26-.017.415h-6.406c.055.797.315 1.406.78 1.826.476.41 1.023.614 1.643.614.498 0 .913-.11 1.245-.332.343-.232.597-.542.763-.93h1.76c-.222.775-.664 1.423-1.328 1.943-.653.52-1.466.78-2.44.78Zm0-7.187c-.586 0-1.106.177-1.56.531-.454.343-.73.863-.83 1.56h4.647c-.033-.641-.26-1.15-.68-1.526-.42-.377-.946-.565-1.577-.565Zm9.593 7.187c-.797 0-1.5-.188-2.108-.565a3.92 3.92 0 0 1-1.427-1.543c-.343-.653-.515-1.394-.515-2.224 0-.83.172-1.566.515-2.207a3.802 3.802 0 0 1 1.427-1.527c.62-.377 1.328-.565 2.124-.565.653 0 1.223.127 1.71.382.498.254.885.614 1.162 1.079v-4.98h1.759v11.95h-1.577l-.182-1.277c-.266.387-.631.73-1.096 1.029-.465.298-1.062.448-1.792.448Zm.315-1.527c.753 0 1.367-.26 1.842-.78.487-.52.73-1.19.73-2.009 0-.83-.243-1.499-.73-2.008-.475-.52-1.09-.78-1.842-.78s-1.372.26-1.859.78c-.487.51-.73 1.179-.73 2.008 0 .543.11 1.024.332 1.444.221.42.526.753.913.996.398.233.846.349 1.344.349Zm15.362 1.527c-.641 0-1.211-.128-1.71-.382a2.948 2.948 0 0 1-1.16-1.079l-.183 1.261h-1.577V4.913h1.76v4.996c.265-.387.63-.73 1.095-1.029.464-.298 1.062-.448 1.792-.448.797 0 1.5.188 2.108.565a3.92 3.92 0 0 1 1.427 1.543c.354.653.531 1.394.531 2.224 0 .83-.177 1.571-.53 2.224a3.95 3.95 0 0 1-1.428 1.527c-.609.365-1.317.548-2.125.548Zm-.298-1.527c.752 0 1.372-.255 1.859-.764.486-.52.73-1.195.73-2.025 0-.542-.11-1.023-.332-1.444a2.44 2.44 0 0 0-.913-.979c-.387-.243-.835-.365-1.344-.365-.753 0-1.372.26-1.86.78-.475.52-.713 1.19-.713 2.008 0 .83.238 1.505.714 2.025.487.51 1.106.764 1.859.764Zm6.55 4.979 1.975-4.332h-.481L82.118 8.63h1.908l2.523 6.091 2.639-6.09h1.859l-5.311 11.883h-1.86Z" fill="#929292"/><g clip-path="url(#a)" fill="#929292"><path d="m24.556 32.11-1.8-5.466a.249.249 0 0 0-.323-.155C12.056 30.422 11.08 41.6 11.08 41.6L7.383 30.327a.247.247 0 0 0-.231-.16H.248a.247.247 0 0 0-.23.34l5.853 16.598a.248.248 0 0 0 .23.156h9.712a.248.248 0 0 0 .248-.24c.055-1.642.698-11.293 8.356-14.606a.247.247 0 0 0 .139-.304v-.002ZM49.804 20.316h-6.205a.248.248 0 0 0-.247.247v26.452c0 .137.11.248.248.248h6.204c.137 0 .248-.111.248-.248V20.563a.248.248 0 0 0-.248-.247ZM95.836 25.708h-6.132a.248.248 0 0 0-.248.247v5.322c0 6.252-1.008 9.486-4.503 9.486-3.17 0-3.855-2.947-3.855-6.216v-8.592a.248.248 0 0 0-.248-.247H74.72a.248.248 0 0 0-.248.247v12.112c0 7.078 3.134 9.63 7.24 9.63s6.609-2.028 8.01-7.125l-.008.04-.448 6.389a.248.248 0 0 0 .248.264h6.323a.248.248 0 0 0 .248-.247V25.955a.248.248 0 0 0-.248-.247ZM119.251 25.708h-6.132a.248.248 0 0 0-.248.247v5.322c0 6.252-1.008 9.486-4.503 9.486-3.17 0-3.855-2.947-3.855-6.216v-8.592a.248.248 0 0 0-.248-.247h-6.131a.248.248 0 0 0-.248.247v12.112c0 7.078 3.134 9.63 7.24 9.63s6.609-2.028 8.011-7.125l-.009.04-.448 6.389a.248.248 0 0 0 .248.264h6.323a.248.248 0 0 0 .248-.247V25.955a.248.248 0 0 0-.248-.247ZM61.46 47.236h-7.294a.248.248 0 0 0-.248.247v5.45c0 .137.111.248.248.248l7.983-.003c6.745-.142 10.425-4.535 10.556-10.002 0 .02.003-.02 0 0v-17.22a.248.248 0 0 0-.248-.248h-5.884a.248.248 0 0 0-.248.247v2.607c0 6.251-.636 9.485-4.13 9.485-3.17 0-3.855-2.946-3.855-6.216v-5.876a.248.248 0 0 0-.248-.247h-5.884a.248.248 0 0 0-.248.247v8.403c0 7.077 3.134 9.629 7.24 9.629 2.672 0 5.655-.942 7.166-3.159-.075 3.599-1.721 6.408-4.906 6.408Z"/><path d="M30.742 25.282v-.003a26.361 26.361 0 0 0-3.856.155v-.003l-.109.015c-.369.044-.73.097-1.082.156h-.003a.252.252 0 0 0-.199.33l1.805 5.4c.04.118.16.189.283.169.102-.018.206-.033.31-.048.53-.07 1.066-.107 1.608-.107h.06c2.154 0 4.81.678 5.254 3.175l.004.045.003.52c-1.134-.176-2.812-.282-4.36-.282-4.626 0-7.845 1.133-9.29 5.399-.491 1.451-.394 3.13.152 4.53.907 2.323 3.448 3.185 6.002 3.185 3.396 0 6.119-1.67 7.542-4.944l.022 3.677v.363c0 .136.111.247.248.247h5.988a.248.248 0 0 0 .248-.247v-11.68c0-5.615-3.762-9.908-10.63-10.052ZM29.51 43.033c-1.6 0-2.968-.667-2.968-2.224 0-1.397 1.134-2.763 5.403-2.763h2.434c-.233 3.176-2.134 4.986-4.868 4.986l-.001.001Z"/></g><defs><clipPath id="a"><path fill="#fff" transform="translate(0 10.415)" d="M0 0h119.499v43.722H0z"/></clipPath></defs></svg>