<svg width="157" height="112" viewBox="0 0 157 112" fill="none" xmlns="http://www.w3.org/2000/svg">
<g clip-path="url(#clip0_953_2438)">
<path d="M144.592 34.0136L135.548 6.25392C135.324 5.57743 134.588 5.21545 133.923 5.46469C81.7608 25.4389 76.8502 82.2163 76.8502 82.2163L58.2734 24.9523C58.0908 24.4657 57.6257 24.1393 57.1075 24.1393H22.421C21.5378 24.1393 20.9372 25.0413 21.2669 25.8661L50.6837 110.166C50.8721 110.641 51.3313 110.949 51.8377 110.949H100.656C101.327 110.949 101.88 110.415 101.904 109.733C102.175 101.389 105.413 52.3797 143.903 35.5506C144.498 35.2895 144.804 34.6249 144.604 34.0077L144.592 34.0136Z" fill="#009DE8"/>
<path d="M100.65 111.488H51.8319C51.1018 111.488 50.46 111.049 50.1832 110.366L20.7665 26.0488C20.5545 25.5207 20.6193 24.8917 20.949 24.3992C21.2787 23.9066 21.8322 23.6099 22.421 23.6099H57.1135C57.8495 23.6099 58.5148 24.0728 58.7739 24.7671L76.6265 79.7999C77.3272 75.0467 79.4881 63.7304 85.3526 51.1085C92.4654 35.7926 106.632 15.3497 133.741 4.97091C134.194 4.79882 134.689 4.81663 135.13 5.03025C135.566 5.23795 135.907 5.6296 136.055 6.09246L145.099 33.8522C145.387 34.7364 144.963 35.6799 144.109 36.0537C128.012 43.0916 116.218 56.5442 109.064 76.0258C103.429 91.3773 102.557 105.732 102.428 109.767C102.398 110.74 101.615 111.5 100.656 111.5L100.65 111.488ZM22.421 24.6781C22.1796 24.6781 21.9618 24.7967 21.8263 24.9985C21.6909 25.2003 21.6674 25.4436 21.7557 25.675L51.1783 109.999C51.2784 110.248 51.5375 110.426 51.8319 110.426H100.65C101.038 110.426 101.35 110.117 101.368 109.726C101.504 105.649 102.375 91.1519 108.069 75.646C115.329 55.8796 127.311 42.2252 143.686 35.0687C144.033 34.9144 144.21 34.5346 144.092 34.1786L135.048 6.41883C134.983 6.22894 134.853 6.07466 134.671 5.99158C134.494 5.9085 134.294 5.89663 134.112 5.96784C107.333 16.222 93.3368 36.4216 86.3064 51.5595C78.6873 67.9733 77.3919 82.1261 77.3801 82.2626C77.3566 82.5177 77.1623 82.7195 76.915 82.7492C76.6618 82.7788 76.4263 82.6246 76.3497 82.3872L57.7729 25.1231C57.6787 24.868 57.4079 24.6781 57.1135 24.6781H22.421Z" fill="#009DE8"/>
<path d="M141.654 34.0136L132.61 6.25392C132.387 5.57743 131.65 5.21545 130.985 5.46469C78.8229 25.4389 73.9122 82.2163 73.9122 82.2163L55.3354 24.9523C55.1529 24.4657 54.6877 24.1393 54.1696 24.1393H19.4771C18.5939 24.1393 17.9934 25.0413 18.3231 25.8661L47.7398 110.166C47.9282 110.641 48.3875 110.949 48.8939 110.949H97.7117C98.383 110.949 98.9365 110.415 98.96 109.739C99.2309 101.407 102.463 52.3856 140.96 35.5506C141.554 35.2895 141.86 34.6249 141.66 34.0077L141.654 34.0136Z" fill="#009DE8"/>
<path d="M97.7118 111.488H48.8939C48.1638 111.488 47.522 111.049 47.2452 110.366L17.8226 26.0488C17.6107 25.5207 17.6754 24.8917 18.0052 24.3992C18.3349 23.9066 18.8884 23.6099 19.4772 23.6099H54.1696C54.9056 23.6099 55.571 24.0728 55.83 24.7671L73.6826 79.7999C74.3833 75.0467 76.5442 63.7304 82.4087 51.1085C89.5215 35.7926 103.688 15.3497 130.797 4.97091C131.25 4.79882 131.745 4.81663 132.186 5.03025C132.622 5.23795 132.964 5.6296 133.111 6.09246L142.155 33.8522C142.443 34.7364 142.014 35.6799 141.166 36.0537C125.062 43.0975 113.274 56.5442 106.12 76.0318C100.485 91.3833 99.6195 105.738 99.4841 109.767C99.4546 110.734 98.6715 111.494 97.7118 111.494V111.488ZM19.4772 24.6781C19.2358 24.6781 19.0179 24.7967 18.8825 24.9985C18.7471 25.2003 18.7235 25.4436 18.8118 25.675L48.2344 109.999C48.3345 110.248 48.5936 110.426 48.888 110.426H97.7059C98.0945 110.426 98.4066 110.123 98.4242 109.732C98.5597 105.655 99.4311 91.1578 105.125 75.6579C112.385 55.8855 124.367 42.2311 140.742 35.0687C141.089 34.9144 141.266 34.5346 141.148 34.1786L132.104 6.41883C132.039 6.22894 131.91 6.07466 131.727 5.99158C131.55 5.9085 131.35 5.89663 131.168 5.96784C104.406 16.216 90.4106 36.3979 83.3802 51.5239C75.7493 67.9436 74.4481 82.1202 74.4363 82.2626C74.4127 82.5177 74.2184 82.7195 73.9711 82.7492C73.7179 82.7788 73.4824 82.6246 73.4059 82.3872L54.8291 25.1231C54.7349 24.868 54.464 24.6781 54.1696 24.6781H19.4772Z" fill="#009DE8"/>
<path d="M122.776 111.489H29.6388C29.3444 111.489 29.1089 111.252 29.1089 110.955C29.1089 110.658 29.3444 110.421 29.6388 110.421H122.782C123.076 110.421 123.312 110.658 123.312 110.955C123.312 111.252 123.076 111.489 122.782 111.489H122.776Z" fill="#009DE8"/>
<path d="M112.002 15.5814C77.5687 40.0181 73.9122 82.2155 73.9122 82.2155L55.3354 24.9514C55.1529 24.4648 54.6877 24.1384 54.1696 24.1384H19.4771C18.5939 24.1384 17.9934 25.0404 18.3231 25.8652L47.7398 110.165C47.9282 110.64 48.3875 110.948 48.8939 110.948H97.7117C98.383 110.948 98.9365 110.414 98.96 109.738C99.1955 102.528 101.651 64.9235 127.176 43.988C127.635 43.6082 127.776 42.9614 127.499 42.4333L113.827 16.0324C113.48 15.3619 112.62 15.1423 112.008 15.5814H112.002Z" fill="#009DE8"/>
<path d="M97.7118 111.488H48.8939C48.1638 111.488 47.522 111.049 47.2453 110.366L17.8226 26.0488C17.6107 25.5207 17.6754 24.8917 18.0052 24.3991C18.3349 23.9066 18.8884 23.6099 19.4772 23.6099H54.1696C54.9056 23.6099 55.571 24.0728 55.83 24.7671L73.6826 79.7999C74.2597 75.9131 75.8023 67.635 79.5471 57.8734C84.3341 45.394 93.8021 27.8469 111.696 15.1479C112.108 14.8512 112.632 14.7562 113.127 14.8749C113.627 14.9995 114.051 15.3318 114.287 15.7888L127.959 42.1896C128.347 42.9373 128.153 43.8689 127.499 44.4089C102.181 65.1724 99.7137 102.492 99.4782 109.761C99.4488 110.728 98.6656 111.488 97.7059 111.488H97.7118ZM19.4772 24.678C19.2358 24.678 19.0179 24.7967 18.8825 24.9985C18.7471 25.2002 18.7235 25.4435 18.8118 25.675L48.2344 109.999C48.3345 110.248 48.5936 110.426 48.888 110.426H97.7059C98.0945 110.426 98.4066 110.117 98.4242 109.732C98.6656 102.379 101.162 64.6383 126.834 43.5841C127.099 43.3645 127.181 42.9907 127.023 42.688L113.35 16.2872C113.256 16.1033 113.08 15.9668 112.879 15.9193C112.679 15.8718 112.473 15.9074 112.308 16.0261C78.4814 40.0296 74.4775 81.8531 74.4363 82.2744C74.4127 82.5296 74.2184 82.7314 73.9711 82.761C73.718 82.7907 73.4824 82.6364 73.4059 82.3991L54.8291 25.135C54.7349 24.8798 54.464 24.6899 54.1696 24.6899H19.4772V24.678Z" fill="#009DE8"/>
<path d="M109.058 15.5814C74.6248 40.0181 70.9684 82.2155 70.9684 82.2155L52.3915 24.9514C52.209 24.4648 51.7439 24.1384 51.2257 24.1384H16.5333C15.6501 24.1384 15.0495 25.0404 15.3792 25.8652L44.796 110.165C44.9844 110.64 45.4436 110.948 45.95 110.948H94.7679C95.4391 110.948 95.9926 110.414 96.0162 109.738C96.2517 102.528 98.707 64.9235 124.232 43.988C124.691 43.6082 124.832 42.9614 124.556 42.4333L110.883 16.0324C110.536 15.3619 109.676 15.1423 109.064 15.5814H109.058Z" fill="#98DEFF"/>
<path d="M94.7682 111.488H45.9503C45.2202 111.488 44.5784 111.049 44.3016 110.366L14.879 26.0488C14.6671 25.5207 14.7318 24.8917 15.0616 24.3991C15.3913 23.9066 15.9448 23.6099 16.5336 23.6099H51.226C51.962 23.6099 52.6274 24.0728 52.8864 24.7671L70.739 79.7999C71.3161 75.9131 72.8587 67.635 76.6035 57.8734C81.3905 45.394 90.8585 27.8469 108.752 15.1479C109.164 14.8512 109.689 14.7562 110.183 14.8749C110.684 14.9995 111.108 15.3318 111.343 15.7888L125.015 42.1896C125.404 42.9373 125.209 43.8689 124.556 44.4089C99.2372 65.1724 96.7701 102.492 96.5346 109.761C96.5051 110.728 95.722 111.488 94.7623 111.488H94.7682ZM16.5336 24.678C16.2922 24.678 16.0743 24.7967 15.9389 24.9985C15.8035 25.2002 15.7799 25.4435 15.8682 25.675L45.2908 109.999C45.3909 110.248 45.65 110.426 45.9444 110.426H94.7623C95.1509 110.426 95.463 110.117 95.4806 109.732C95.722 102.379 98.2186 64.6383 123.891 43.5841C124.155 43.3645 124.238 42.9907 124.079 42.688L110.407 16.2872C110.313 16.1033 110.136 15.9668 109.936 15.9193C109.736 15.8718 109.53 15.9074 109.365 16.0261C75.5378 40.0296 71.5339 81.8531 71.4927 82.2744C71.4691 82.5296 71.2748 82.7314 71.0275 82.761C70.7743 82.7907 70.5388 82.6364 70.4623 82.3991L51.8855 25.135C51.7913 24.8798 51.5204 24.6899 51.226 24.6899H16.5336V24.678Z" fill="#009DE8"/>
<path d="M93.7787 29.5871C73.4649 53.3888 70.9684 82.2226 70.9684 82.2226L52.3915 24.9585C52.209 24.4719 51.7439 24.1455 51.2257 24.1455H16.5333C15.6501 24.1455 15.0495 25.0475 15.3792 25.8723L44.796 110.172C44.9844 110.647 45.4436 110.955 45.95 110.955H94.7679C95.4391 110.955 95.9926 110.421 96.0103 109.745C96.2046 103.835 97.8885 77.4397 112.597 56.5872C112.897 56.16 112.909 55.5963 112.62 55.1631L95.7512 29.7117C95.2978 29.0233 94.3086 28.9521 93.7787 29.5811V29.5871Z" fill="#009DE8"/>
<path d="M94.7682 111.489H45.9503C45.2202 111.489 44.5784 111.05 44.3017 110.368L14.879 26.0502C14.6671 25.5221 14.7318 24.8931 15.0616 24.4006C15.3913 23.908 15.9448 23.6113 16.5336 23.6113H51.226C51.962 23.6113 52.6274 24.0742 52.8864 24.7685L70.739 79.8073C71.846 72.4015 76.5388 48.9618 93.3727 29.2369C93.7319 28.8155 94.2618 28.59 94.8153 28.6256C95.3746 28.6612 95.8751 28.952 96.1872 29.4208L113.056 54.8722C113.463 55.4834 113.451 56.3023 113.021 56.9016C98.2833 77.7897 96.6995 104.6 96.5287 109.769C96.4993 110.736 95.7162 111.495 94.7564 111.495L94.7682 111.489ZM16.5336 24.6795C16.2922 24.6795 16.0743 24.7981 15.9389 24.9999C15.8035 25.2017 15.7799 25.445 15.8682 25.6764L45.2908 110C45.3909 110.249 45.65 110.427 45.9444 110.427H94.7623C95.1509 110.427 95.463 110.125 95.4806 109.733C95.6514 104.517 97.2529 77.4218 112.167 56.2845C112.344 56.0353 112.35 55.7148 112.185 55.4656L95.3158 30.0142C95.1921 29.8243 94.986 29.7056 94.7564 29.6938C94.5327 29.6819 94.3266 29.7709 94.1794 29.9371C74.2189 53.3234 71.5163 81.9791 71.4927 82.2699C71.4691 82.5251 71.2748 82.7268 71.0275 82.7565C70.7802 82.7862 70.5447 82.6319 70.4623 82.3945L51.8855 25.1305C51.7913 24.8753 51.5204 24.6854 51.226 24.6854H16.5336V24.6795Z" fill="#009DE8"/>
<path d="M90.8339 29.5871C70.5201 53.3888 68.0235 82.2226 68.0235 82.2226L49.4467 24.9585C49.2642 24.4719 48.799 24.1455 48.2809 24.1455H13.5885C12.7053 24.1455 12.1047 25.0475 12.4344 25.8723L41.8511 110.172C42.0396 110.647 42.4988 110.955 43.0052 110.955H91.8231C92.4943 110.955 93.0478 110.421 93.0654 109.745C93.2597 103.835 94.9437 77.4397 109.652 56.5872C109.952 56.16 109.964 55.5963 109.676 55.1631L92.8064 29.7117C92.353 29.0233 91.3638 28.9521 90.8339 29.5811V29.5871Z" fill="white"/>
<path d="M91.8231 111.489H43.0052C42.2751 111.489 41.6333 111.05 41.3566 110.368L11.934 26.0502C11.722 25.5221 11.7868 24.8931 12.1165 24.4006C12.4462 23.908 12.9997 23.6113 13.5885 23.6113H48.2809C49.0169 23.6113 49.6823 24.0742 49.9414 24.7685L67.794 79.8073C68.9009 72.4015 73.5937 48.9618 90.4276 29.2369C90.7868 28.8155 91.3167 28.59 91.8702 28.6256C92.4296 28.6612 92.9301 28.952 93.2421 29.4208L110.111 54.8722C110.518 55.4834 110.506 56.3023 110.076 56.9016C95.3383 77.7897 93.7544 104.6 93.5836 109.769C93.5542 110.736 92.7711 111.495 91.8113 111.495L91.8231 111.489ZM13.5885 24.6795C13.3471 24.6795 13.1292 24.7981 12.9938 24.9999C12.8584 25.2017 12.8348 25.445 12.9232 25.6764L42.3458 110C42.4459 110.249 42.7049 110.427 42.9993 110.427H91.8172C92.2058 110.427 92.5179 110.125 92.5356 109.733C92.7063 104.517 94.3079 77.4218 109.222 56.2845C109.399 56.0353 109.405 55.7148 109.24 55.4656L92.3707 30.0142C92.247 29.8243 92.041 29.7056 91.8113 29.6938C91.5876 29.6819 91.3815 29.7709 91.2343 29.9371C71.2738 53.3234 68.5712 81.9791 68.5476 82.2699C68.5241 82.5251 68.3298 82.7268 68.0825 82.7565C67.8352 82.7862 67.5938 82.6319 67.5172 82.3945L48.9404 25.1305C48.8462 24.8753 48.5753 24.6854 48.2809 24.6854H13.5885V24.6795Z" fill="#009DE8"/>
<path d="M134.441 5.92068H131.397C131.102 5.92068 130.867 5.68331 130.867 5.38661C130.867 5.0899 131.102 4.85254 131.397 4.85254H134.441C134.735 4.85254 134.971 5.0899 134.971 5.38661C134.971 5.68331 134.735 5.92068 134.441 5.92068Z" fill="#009DE8"/>
<path d="M112.833 15.8904H109.747C109.453 15.8904 109.218 15.653 109.218 15.3563C109.218 15.0596 109.453 14.8223 109.747 14.8223H112.833C113.127 14.8223 113.363 15.0596 113.363 15.3563C113.363 15.653 113.127 15.8904 112.833 15.8904Z" fill="#009DE8"/>
<path d="M94.8489 29.6931H91.7106C91.4162 29.6931 91.1807 29.4558 91.1807 29.1591C91.1807 28.8624 91.4162 28.625 91.7106 28.625H94.8489C95.1433 28.625 95.3788 28.8624 95.3788 29.1591C95.3788 29.4558 95.1433 29.6931 94.8489 29.6931Z" fill="#009DE8"/>
<path d="M115.169 73.4455C115.105 73.4455 115.034 73.4336 114.969 73.4039C114.698 73.2912 114.569 72.9826 114.681 72.7096C114.745 72.5435 121.528 56.1416 133.699 48.3146C133.946 48.1543 134.276 48.2315 134.429 48.4748C134.582 48.7181 134.512 49.0563 134.27 49.2106C122.388 56.8478 115.729 72.947 115.664 73.1072C115.581 73.3149 115.381 73.4395 115.175 73.4395L115.169 73.4455Z" fill="#009DE8"/>
<path d="M121.223 72.5963C121.158 72.5963 121.099 72.5844 121.034 72.5607C120.764 72.4539 120.622 72.1453 120.728 71.8723C120.84 71.5816 123.478 64.6743 128.306 60.2059C128.524 60.0041 128.854 60.0219 129.054 60.2356C129.254 60.4551 129.236 60.7934 129.024 60.9892C124.385 65.2914 121.747 72.1809 121.717 72.2521C121.635 72.4657 121.435 72.5963 121.223 72.5963Z" fill="#009DE8"/>
<path d="M97.4586 17.6826C97.3291 17.6826 97.1936 17.6351 97.0935 17.5342C96.8816 17.3325 96.8698 16.9942 97.0759 16.7806C97.1583 16.6916 105.737 7.68958 121.817 0.544921C122.082 0.426239 122.4 0.544921 122.518 0.817889C122.636 1.09086 122.518 1.40537 122.247 1.52405C106.373 8.57969 97.9296 17.4274 97.8472 17.5164C97.7412 17.6292 97.6058 17.6826 97.4645 17.6826H97.4586Z" fill="#009DE8"/>
</g>
<defs>
<clipPath id="clip0_953_2438">
<rect width="157" height="111" fill="white" transform="translate(0 0.5)"/>
</clipPath>
</defs>
</svg>
