<svg width="88" height="88" viewBox="0 0 88 88" fill="none" xmlns="http://www.w3.org/2000/svg">
<g clip-path="url(#clip0_428_3392)">
<path fill-rule="evenodd" clip-rule="evenodd" d="M32.1984 7.33333C35.5595 7.33333 33.8747 10.6944 37.5379 10.6944H50.7222C54.0833 10.6944 52.4161 7.33333 55.91 7.33333H57.4445C61.157 7.33333 64.1667 10.343 64.1667 14.0556V73.9444C64.1667 77.657 61.157 80.6667 57.4445 80.6667H30.5556C26.843 80.6667 23.8333 77.657 23.8333 73.9444V14.0556C23.8333 10.343 26.843 7.33333 30.5556 7.33333H32.1984ZM37.2778 51.0278H30.5556V57.75H37.2778V51.0278ZM47.3611 51.0278H40.6389V57.75H47.3611V51.0278ZM37.2778 40.9444H30.5556V47.6667H37.2778V40.9444ZM47.3611 40.9444H40.6389V47.6667H47.3611V40.9444ZM57.4445 40.9444H50.7222V47.6667H57.4445V40.9444ZM37.2778 30.8611H30.5556V37.5833H37.2778V30.8611ZM47.3611 30.8611H40.6389V37.5833H47.3611V30.8611ZM57.4445 30.8611H50.7222V37.5833H57.4445V30.8611ZM37.2778 20.7778H30.5556V27.5H37.2778V20.7778ZM47.3611 20.7778H40.6389V27.5H47.3611V20.7778ZM57.4445 20.7778H50.7222V27.5H57.4445V20.7778Z" fill="black"/>
</g>
<defs>
<clipPath id="clip0_428_3392">
<rect width="88" height="88" fill="white"/>
</clipPath>
</defs>
</svg>
