<svg width="88" height="88" viewBox="0 0 88 88" fill="none" xmlns="http://www.w3.org/2000/svg">
<path d="M64.2543 38.9682H62.9755V30.0857C62.9755 25.3145 59.1118 21.4507 54.3405 21.4507C53.4193 21.4507 52.6768 20.7082 52.6768 19.787V15.2357C52.6768 13.462 51.2468 12.032 49.473 12.032H37.153C35.3793 12.032 33.9493 13.462 33.9493 15.2357V19.787C33.9493 20.7082 33.2068 21.4507 32.2855 21.4507C27.5143 21.4507 23.6505 25.3145 23.6505 30.0857V56.802C23.6505 61.5732 27.5143 65.437 32.2855 65.437C33.2068 65.437 33.9493 66.1795 33.9493 67.1007V71.652C33.9493 73.4257 35.3793 74.8557 37.153 74.8557H49.473C51.2468 74.8557 52.6768 73.4257 52.6768 71.652V67.1007C52.6768 66.1795 53.4193 65.437 54.3405 65.437C59.1118 65.437 62.9755 61.5732 62.9755 56.802V47.672H64.2543C64.9555 47.672 65.533 47.0945 65.533 46.3932V40.247C65.533 39.5457 64.9555 38.9682 64.2543 38.9682ZM60.308 57.242C60.308 60.4045 57.7368 62.9757 54.5743 62.9757H32.038C28.8755 62.9757 26.3043 60.4045 26.3043 57.242V29.6595C26.3043 26.497 28.8755 23.9257 32.038 23.9257H54.5743C57.7368 23.9257 60.308 26.497 60.308 29.6595V57.242Z" fill="black"/>
<path d="M53.914 25.9047H32.6978C30.4196 25.9047 28.5728 27.7516 28.5728 30.0297V56.8697C28.5728 59.1479 30.4196 60.9947 32.6978 60.9947H53.914C56.1922 60.9947 58.039 59.1479 58.039 56.8697V30.0297C58.039 27.7516 56.1922 25.9047 53.914 25.9047Z" fill="black"/>
<path d="M37.813 29.9611H31.5705V36.2036H37.813V29.9611Z" fill="white"/>
<path d="M46.5447 29.9611H40.3022V36.2036H46.5447V29.9611Z" fill="white"/>
<path d="M55.289 29.9611H49.0465V36.2036H55.289V29.9611Z" fill="white"/>
<path d="M37.813 38.6784H31.5705V44.9209H37.813V38.6784Z" fill="white"/>
<path d="M46.5447 38.6784H40.3022V44.9209H46.5447V38.6784Z" fill="white"/>
<path d="M55.2893 38.6784H49.0468V44.9209H55.2893V38.6784Z" fill="white"/>
</svg>
