<svg width="88" height="88" viewBox="0 0 88 88" fill="none" xmlns="http://www.w3.org/2000/svg">
<path d="M66.3855 7.3289H21.6155C17.903 7.3289 14.8918 10.3402 14.8918 14.0527V73.9477C14.8918 77.6602 17.903 80.6714 21.6155 80.6714H66.3855C70.098 80.6714 73.1093 77.6602 73.1093 73.9477V14.0527C73.1093 10.3402 70.098 7.3289 66.3855 7.3289ZM27.198 42.1027H20.4743V35.3789H27.198V42.1027ZM27.198 32.0102H20.4743V25.2864H27.198V32.0102ZM27.198 21.9314H20.4743V15.2077H27.198V21.9314ZM37.2768 42.1027H30.553V35.3789H37.2768V42.1027ZM37.2768 32.0102H30.553V25.2864H37.2768V32.0102ZM37.2768 21.9314H30.553V15.2077H37.2768V21.9314ZM44.0005 77.6327C42.488 77.6327 41.2505 76.4089 41.2505 74.8827C41.2505 73.3564 42.4743 72.1327 44.0005 72.1327C45.5268 72.1327 46.7505 73.3564 46.7505 74.8827C46.7505 76.4089 45.5268 77.6327 44.0005 77.6327ZM47.3555 42.1027H40.6318V35.3789H47.3555V42.1027ZM47.3555 32.0102H40.6318V25.2864H47.3555V32.0102ZM47.3555 21.9314H40.6318V15.2077H47.3555V21.9314ZM57.0905 42.1027H50.3668V35.3789H57.0905V42.1027ZM57.0905 32.0102H50.3668V25.2864H57.0905V32.0102ZM57.0905 21.9314H50.3668V15.2077H57.0905V21.9314ZM66.7843 32.0102H60.0605V25.2864H66.7843V32.0102ZM66.7843 21.9314H60.0605V15.2077H66.7843V21.9314Z" fill="black"/>
</svg>
